<?xml version="1.0" encoding="UTF-8"?>
<!-- Generator: visioncortex VTracer 0.6.12 -->
<svg version="1.1" viewBox="0 0 880 980" xmlns="http://www.w3.org/2000/svg">
 <path transform="translate(461 121)" d="m0 0c5.54 1.02 10.5 3.1 15.5 5.66 1.9 0.964 3.82 1.81 5.79 2.62 3.64 1.53 7.09 3.35 10.6 5.23 0.652 0.351 1.3 0.702 1.96 1.05 1.35 0.725 2.69 1.45 4.04 2.18 2.85 1.54 5.71 3.06 8.57 4.59 1.56 0.831 3.12 1.66 4.68 2.49 0.625 0.333 1.25 0.667 1.88 1 1.25 0.667 2.5 1.33 3.75 2 0.155 0.0825 0.155 0.0825 0.938 0.5 0.625 0.333 1.25 0.667 1.87 1 1.56 0.834 3.13 1.67 4.69 2.5 3.1 1.65 6.2 3.31 9.3 4.96 2.79 1.49 5.59 2.98 8.38 4.47 1.67 0.892 3.35 1.78 5.02 2.68 2.16 1.15 4.32 2.3 6.48 3.45 0.355 0.189 0.711 0.378 1.08 0.573 3.74 1.99 7.49 3.95 11.3 5.81 0.312 0.153 0.624 0.305 0.945 0.462 0.613 0.3 1.23 0.6 1.84 0.899 4.14 2.03 8.02 4.02 11.7 6.86 2.89 2.18 6.11 3.68 9.36 5.25 4.47 2.17 8.87 4.47 13.3 6.8 6.41 3.4 12.8 6.74 19.3 9.96 5.21 2.58 10.4 5.25 15.5 8.03 11.7 6.34 23.4 12.5 35.3 18.4 3.01 1.48 6.01 2.97 9.01 4.47 0.345 0.172 0.691 0.344 1.05 0.521 4.34 2.16 8.65 4.36 12.9 6.78 1.89 1.09 3.81 2.08 5.77 3.04 2.09 1.03 4.12 2.13 6.12 3.32 0.254 0.15 0.508 0.301 0.769 0.456 0.26 0.154 0.52 0.308 0.788 0.467 5.68 3.37 11.5 6.35 17.5 9.11 26.5 12.2 26.5 12.2 34.7 20.2 7.54 7.67 12.7 17.9 17.2 27.5 2.81 6.18 4.54 12.7 5.1 19.5 0.193 4.07 0.183 8.14 0.201 12.2 0.00811 1.66 0.0218 3.32 0.0347 4.98 0.0245 3.26 0.044 6.52 0.0617 9.78 0.0212 3.85 0.0478 7.71 0.0744 11.6 0.0541 7.85 0.101 15.7 0.146 23.5 0.032 5.59 0.0653 11.2 0.0998 16.8 0.5 81.1 0.5 81.1-0.00797 201-0.0262 2.79-0.0521 5.57-0.0771 8.36-0.0519 5.79-0.106 11.6-0.169 17.4-0.0261 2.4-0.051 4.81-0.0724 7.21-0.0778 8.6-0.185 17.2-0.705 25.8-0.0162 0.297-0.0323 0.593-0.049 0.899-0.372 6.59-2.1 12.6-4.54 18.8-0.101 0.256-0.202 0.512-0.305 0.776-2.4 6.05-5.45 11.4-9.75 16.3-4.72 5.25-9.97 9.07-16.1 12.4-0.875 0.48-1.75 0.965-2.62 1.45-6.07 3.37-12.2 6.66-18.6 9.35-4.44 1.92-8.67 4.27-12.9 6.55-4.82 2.58-9.66 5.11-14.6 7.53-14.6 7.21-28.9 15-43.2 22.8-9.48 5.19-19 10.4-28.7 15.1-4.35 2.15-8.63 4.41-12.9 6.71-4.02 2.16-8.03 4.3-12.1 6.31-12.6 6.2-24.9 12.9-37.2 19.6-0.119 0.0645-0.119 0.0645-0.719 0.391-2.76 1.5-5.51 3-8.26 4.51-1.61 0.88-3.22 1.76-4.83 2.64-0.704 0.383-1.41 0.766-2.11 1.15-0.468 0.255-0.936 0.51-1.4 0.764-2.28 1.24-4.55 2.48-6.8 3.76-5.22 2.97-10.6 5.65-15.9 8.32-4.39 2.18-8.73 4.4-13 6.82-3.24 1.84-6.56 3.5-9.9 5.14-1.45 0.715-2.9 1.44-4.35 2.17-0.807 0.404-1.61 0.807-2.42 1.21-2.37 1.18-4.73 2.37-7.08 3.58-13 6.7-13 6.7-19.1 8.93-0.379 0.143-0.758 0.286-1.15 0.434-7.85 2.73-16 3.58-24.2 3.5-0.455-0.00249-0.91-0.00498-1.38-0.00754-8.41-0.0706-16.3-0.739-24.3-3.63-4.76-1.79-9.35-3.94-13.9-6.12-1.24-0.585-2.48-1.16-3.71-1.74-9.25-4.3-18.5-8.67-27.4-13.6-2.87-1.58-5.73-3.07-8.8-4.23-1.86-0.714-3.5-1.69-5.19-2.72-2.76-1.68-5.6-3.22-8.44-4.75-0.144-0.0777-0.144-0.0777-0.873-0.471-3.31-1.78-6.59-3.5-10.1-4.9-4.2-1.71-8.22-3.86-12.3-5.91-1.42-0.719-2.84-1.43-4.27-2.14-3.52-1.74-7.01-3.52-10.5-5.37-0.359-0.192-0.718-0.384-1.09-0.581-1.46-0.783-2.93-1.57-4.39-2.35-3.64-1.96-7.2-3.85-11.1-5.3-1.69-0.718-3.2-1.7-4.76-2.67-2.35-1.43-4.86-2.59-7.33-3.8-8.87-4.35-8.87-4.35-12.7-6.68-1.62-0.971-3.28-1.83-4.97-2.66-2.47-1.22-4.92-2.49-7.36-3.79-0.353-0.188-0.707-0.376-1.07-0.569-1.46-0.775-2.91-1.55-4.37-2.33-4.85-2.58-9.72-5.1-14.6-7.54-1.33-0.658-2.65-1.32-3.97-1.99-1.8-0.9-3.6-1.8-5.4-2.69-1.45-0.715-2.89-1.43-4.34-2.15-0.152-0.0756-0.152-0.0756-0.923-0.458-3.77-1.88-7.49-3.81-11.1-5.92-3.04-1.75-6.07-3.07-9.38-4.23-2.37-0.838-4.36-1.85-6.44-3.28-1.21-0.692-2.35-1.17-3.64-1.67-2.63-1.02-5.02-2.31-7.47-3.7-4.5-2.51-9.07-4.84-13.7-7.12-6.59-3.26-13.1-6.65-19.6-10.1-4.44-2.35-8.88-4.69-13.4-6.91-16.6-8.22-16.6-8.22-22.5-14.2-0.267-0.269-0.533-0.539-0.808-0.816-3.45-3.56-6.15-7.3-8.18-11.8-0.339-0.788-0.675-1.58-1.01-2.37-0.102-0.239-0.204-0.478-0.309-0.724-0.698-1.64-1.38-3.28-2.04-4.94-0.22-0.547-0.442-1.09-0.667-1.64-2.46-6-2.96-12-3.23-18.5-0.113-2.87-0.2-5.74-0.281-8.61-0.0303-1.07-0.0617-2.14-0.0932-3.21-0.516-17.7-0.53-35.4-0.517-53.1 0.00226-3.34 0.00214-6.69 6.2e-4 -10-2.2e-4 -0.488-4.41e-4 -0.977-6.68e-4 -1.48-4.58e-4 -0.995-9.21e-4 -1.99-0.00139-2.99-0.00505-11.2 3.23e-4 -22.4 0.00793-33.6 0.00274-4.03 0.0049-8.07 0.00659-12.1 1.13e-4 -0.267 2.25e-4 -0.534 3.41e-4 -0.809 2.28e-4 -0.54 4.55e-4 -1.08 6.82e-4 -1.62 1.13e-4 -0.267 2.26e-4 -0.535 3.42e-4 -0.81 1.12e-4 -0.267 2.25e-4 -0.535 3.4e-4 -0.81 0.0112-26.4 0.0389-52.9 0.391-156 0.0312-4.81 0.0552-9.62 0.075-14.4 0.0222-5.36 0.055-10.7 0.103-16.1 0.0234-2.66 0.0429-5.31 0.0491-7.97 0.031-11.1 0.136-21.8 3.95-32.4 0.775-2.02 1.63-3.98 2.6-5.92 0.462-0.921 0.903-1.85 1.34-2.78 1.42-2.95 2.9-5.66 4.95-8.23 0.9-1.13 1.61-2.32 2.34-3.57 0.13-0.22 0.259-0.441 0.393-0.668 0.309-0.526 0.615-1.05 0.92-1.58 0.99-0.33 1.98-0.66 3-1 0.0965-0.251 0.193-0.502 0.292-0.761 0.498-1.15 1.03-2.18 1.71-3.24 1.25-1.27 2.65-2.25 4.12-3.25 0.211-0.146 0.422-0.291 0.639-0.441 5.7-3.91 12-6.78 18.2-9.79 3.21-1.57 6.35-3.26 9.49-4.97 6.93-3.77 14-7.19 21.2-10.5 3.44-1.6 6.8-3.18 10-5.19 3.24-2.01 6.62-3.79 9.96-5.63 0.889-0.491 1.78-0.983 2.66-1.48 4.35-2.42 8.67-4.82 13.3-6.71 3.51-1.44 6.88-3.16 10.3-4.86 0.348-0.175 0.697-0.349 1.06-0.529 4.76-2.39 9.46-4.85 14.1-7.44 3.94-2.18 7.96-4.17 12-6.17 4.18-2.07 8.31-4.22 12.4-6.49 3.52-1.95 7.1-3.78 10.7-5.57 4.18-2.06 8.29-4.22 12.4-6.47 3-1.65 6.02-3.26 9.05-4.85 0.395-0.206 0.789-0.412 1.2-0.625 0.817-0.427 1.63-0.854 2.45-1.28 6.27-3.28 12.5-6.6 18.6-10.1 4.34-2.51 8.7-4.92 13.2-7.1 2.35-1.14 4.69-2.3 7.03-3.46 0.261-0.13 0.522-0.26 0.791-0.393 3.22-1.6 6.39-3.26 9.52-5.04 4.07-2.31 8.24-4.41 12.4-6.5 0.346-0.172 0.691-0.344 1.05-0.521 3.03-1.51 6.05-3 9.08-4.5 1.71-0.844 3.41-1.69 5.12-2.54 0.277-0.138 0.555-0.276 0.84-0.418 5.84-2.91 11.6-5.96 17.4-9.04 0.341-0.182 0.683-0.364 1.03-0.552 0.669-0.357 1.34-0.715 2.01-1.07 1.49-0.795 2.99-1.57 4.51-2.31 0.265-0.128 0.529-0.257 0.802-0.389 0.693-0.333 1.39-0.659 2.08-0.985 1.22-0.627 2.24-1.42 3.32-2.27 2.04-1.56 4.06-2.49 6.46-3.35 0.417-0.152 0.835-0.303 1.26-0.459 1.37-0.485 2.75-0.949 4.13-1.4 0.237-0.0784 0.474-0.157 0.719-0.238 11.9-3.9 24.3-4.82 36.7-2.9zm-33.5 27.1c-7.04 3.04-13.8 6.63-20.3 10.7-2.45 1.53-4.9 2.77-7.56 3.88-3.97 1.65-7.61 3.71-11.3 5.88-5.02 2.93-10.1 5.64-15.3 8.19-5.59 2.74-11 5.65-16.4 8.75-4.75 2.72-9.46 5.25-14.5 7.44-4.07 1.78-8.05 3.71-12 5.69-0.339 0.169-0.679 0.338-1.03 0.512-5.59 2.8-11 5.81-16.4 8.95-3.23 1.88-6.47 3.67-9.84 5.29-2.49 1.21-4.91 2.52-7.33 3.86-4.37 2.42-8.78 4.72-13.3 6.94-0.289 0.144-0.578 0.288-0.876 0.436-2.82 1.4-5.64 2.8-8.46 4.18-13.9 6.83-13.9 6.83-20.4 10.9-3.29 2.03-6.68 3.76-10.1 5.45-3.75 1.84-7.44 3.75-11.1 5.74-7.66 4.17-15.4 8.14-23.3 11.8-0.349 0.162-0.698 0.325-1.06 0.492-0.354 0.165-0.708 0.329-1.07 0.498-6.87 3.19-13.6 6.53-20.3 10.1-4.13 2.24-8.31 4.37-12.5 6.44-3.03 1.5-6.05 3.02-9.07 4.56-0.35 0.177-0.7 0.354-1.06 0.537-14 7.12-14 7.12-18.3 11.7-1.67 1.84-3.17 3.78-4.62 5.79l-1 9c1.76 2.6 3.43 4.64 5.95 6.53 4.72 3.33 9.63 5.78 14.9 8 1.88 0.807 3.71 1.7 5.55 2.6 0.165 0.0794 0.165 0.0794 1 0.481 1.42 0.706 2.45 1.28 3.56 2.43 1 0.965 1 0.965 1.78 1.32 0.946 0.337 1.9 0.648 2.85 0.954 3.42 1.18 6.34 2.74 9.32 4.8 2.02 1.36 4.06 2.36 6.3 3.28 3.68 1.53 7.18 3.33 10.7 5.22 1.09 0.588 2.19 1.17 3.29 1.76 3.32 1.77 6.64 3.55 9.95 5.34 1.33 0.719 2.67 1.44 4.01 2.15 0.913 0.492 1.82 0.988 2.74 1.48 3.17 1.71 6.36 3.24 9.69 4.63 2.08 0.871 4.04 1.85 5.96 3.02 2.24 1.35 4.54 2.56 6.89 3.73 3.34 1.66 6.64 3.39 9.94 5.13 0.742 0.39 1.48 0.779 2.23 1.17 3.58 1.87 7.12 3.72 10.4 6.03 3.01 2.08 6.2 3.68 9.49 5.27 1.77 0.858 3.53 1.73 5.3 2.61 0.355 0.175 0.709 0.351 1.07 0.532 3.25 1.61 6.46 3.31 9.64 5.04 0.26 0.141 0.519 0.282 0.787 0.427 1.06 0.576 2.12 1.15 3.18 1.73 3.59 1.95 7.19 3.87 10.8 5.78 0.953 0.507 1.91 1.01 2.86 1.52 0.316 0.168 0.632 0.336 0.957 0.509 2.2 1.17 4.39 2.35 6.58 3.53 9.01 4.85 18.1 9.46 27.3 14 8.44 4.18 16.9 8.4 25.1 12.9 0.625 0.337 1.25 0.673 1.88 1.01 0.315 0.17 0.631 0.339 0.956 0.514 2.53 1.36 5.08 2.7 7.62 4.02 39.3 20.5 39.3 20.5 49.4 31.6 4.02 4.71 7.74 10.2 10 16 0.638 2.14 0.906 4.35 1.17 6.56 0.0395 0.301 0.0789 0.602 0.12 0.911 0.816 6.23 0.992 12.4 0.955 18.7-0.0068 1.53-0.00163 3.06 0.0018 4.59 0.00493 3-6.48e-4 5.99-0.00991 8.99-0.0105 3.56-0.00964 7.12-0.00861 10.7 0.00164 7.28-0.0105 14.6-0.0272 21.9-0.0127 5.58-0.021 11.2-0.0266 16.8-0.0357 34.6-0.125 69.3-0.598 118-0.0152 1.42-0.0301 2.84-0.045 4.26-0.214 20.3-0.563 40.6-1.09 60.9-0.407 15.7-0.631 31.4-0.628 47.1-3.64e-4 2.52-0.0123 5.04-0.0259 7.56-0.0131 2.51-0.0184 5.02-0.0178 7.53 2.51e-4 1.46-0.00234 2.93-0.0132 4.39-0.00972 1.34-0.00974 2.69-0.00248 4.03 0.00152 0.713-0.00673 1.43-0.0154 2.14 0.0178 1.85 0.109 3.53 0.721 5.28 0.478 1.2 1 2.39 1.54 3.56l5 3 11-1 5-4c0.114-20.9 0.0873-41.8-0.212-62.7-0.0106-0.744-0.0212-1.49-0.0317-2.23-0.0217-1.53-0.0435-3.05-0.0653-4.58-0.00551-0.386-0.011-0.772-0.0167-1.17-0.0113-0.789-0.0226-1.58-0.0339-2.37-0.465-32.5-0.748-65.1-0.981-145-0.0029-2.43-0.0059-4.85-0.00896-7.28-7.65e-4 -0.608-0.00152-1.22-0.00228-1.82-0.0124-9.93-0.0438-19.9-0.0848-29.8-0.0429-10.4-0.0694-20.8-0.0746-31.2-7.4e-4 -1.47-0.00165-2.94-0.00266-4.41-1.91e-4 -0.289-3.81e-4 -0.577-5.78e-4 -0.874-0.00346-4.58-0.0235-9.15-0.0502-13.7-0.0263-4.57-0.0338-9.13-0.0229-13.7 0.00539-2.46 0.00262-4.91-0.0225-7.37-0.157-16.3-0.157-16.3 2.27-23.5 2.22-6.21 5.23-11.7 9.42-16.8 4.12-4.83 8.45-8.83 13.9-12.1 0.385-0.241 0.771-0.482 1.17-0.73 3-1.85 6.09-3.52 9.18-5.22 2.11-1.17 4.19-2.36 6.25-3.6 0.217-0.131 0.434-0.262 0.657-0.397 1.04-0.632 2.08-1.27 3.12-1.91 2.32-1.41 4.67-2.7 7.11-3.89 3.9-1.92 7.73-3.97 11.6-6 0.209-0.11 0.209-0.11 1.27-0.667 8.24-4.34 16.5-8.72 24.6-13.2 0.718-0.394 1.44-0.788 2.16-1.18 0.463-0.254 0.925-0.508 1.39-0.762 3.25-1.78 6.54-3.48 9.86-5.11 2.18-1.08 4.24-2.27 6.31-3.55 1.64-0.984 3.36-1.81 5.08-2.65 3.68-1.81 7.26-3.77 10.8-5.77 2.63-1.47 5.27-2.91 7.92-4.35 3.34-1.82 6.68-3.65 10-5.5 4.68-2.61 9.39-5.17 14.1-7.73 1.85-1.01 3.69-2.01 5.54-3.02 0.912-0.498 1.83-0.995 2.74-1.49 2.09-1.14 4.18-2.28 6.27-3.43 4.52-2.49 9.04-4.95 13.7-7.22 2.02-0.999 4.02-2.04 6-3.12 0.254-0.138 0.507-0.276 0.769-0.418 1.08-0.586 2.15-1.17 3.23-1.76 3.41-1.86 6.84-3.65 10.3-5.36 0.176-0.0864 0.176-0.0864 1.07-0.524 1.71-0.84 3.42-1.67 5.14-2.49 3.66-1.77 6.99-3.73 10.2-6.21 2.38-1.8 4.86-2.91 7.65-3.95 1.68-0.672 3.16-1.59 4.69-2.54 2.57-1.57 5.28-2.85 7.98-4.17 6.34-3.09 12.6-6.25 18.2-10.7 1.57-1.23 3.14-1.91 4.97-2.64 4.67-1.93 9.01-4.44 13.4-6.93 0.835-0.468 1.67-0.937 2.51-1.4 2.02-1.13 4.04-2.27 6.06-3.41 1.92-3.52 1.92-3.52 2.23-5.28-0.00524-0.178-0.00524-0.178-0.0317-1.08-0.00322-0.197-0.00322-0.197-0.0195-1.19-0.0168-0.396-0.0335-0.791-0.0508-1.2-0.00451-0.206-0.00451-0.206-0.0273-1.25-0.0233-1-0.056-2-0.0977-3-1.77-3.36-3.74-6.93-6.57-9.52-5.34-4.39-12-7.37-18.1-10.4-4.61-2.24-9.13-4.65-13.7-7.05-9.16-4.86-9.16-4.86-13.7-7.12-0.318-0.157-0.637-0.315-0.964-0.477-1.46-0.718-2.91-1.43-4.37-2.13-2.6-1.26-5-2.61-7.36-4.28-2.72-1.91-5.6-3.2-8.65-4.51-4.3-1.85-8.4-4.03-12.5-6.23-0.828-0.44-1.66-0.879-2.49-1.32-1.69-0.895-3.38-1.79-5.06-2.69-2.29-1.22-4.57-2.43-6.86-3.64-2.79-1.47-5.57-2.95-8.36-4.43-2.57-1.36-5.14-2.72-7.71-4.07-1.55-0.816-3.1-1.63-4.65-2.45-0.733-0.386-1.47-0.772-2.2-1.16-3.58-1.88-7.11-3.79-10.6-5.9-1.8-1.07-3.67-1.99-5.55-2.91-0.64-0.318-1.28-0.636-1.92-0.954-2.09-1.04-4.2-2.06-6.3-3.08-1.25-0.604-2.49-1.21-3.73-1.82-0.606-0.296-1.21-0.589-1.82-0.88-3.32-1.59-6.21-3.23-9.01-5.62-1.67-1.39-3.33-2.18-5.36-2.91-0.404-0.138-0.808-0.276-1.22-0.418-3.73-1.38-6.97-3.02-10.3-5.2-3.17-2.08-6.49-3.73-9.9-5.37-1.68-0.811-3.34-1.65-5-2.48-1.94-0.972-3.88-1.94-5.82-2.89-4.34-2.13-8.61-4.38-12.9-6.67-0.138-0.0739-0.138-0.0739-0.837-0.448-2.62-1.41-5.23-2.82-7.78-4.38-3.77-2.29-7.66-4.38-11.5-6.5-0.672-0.369-1.34-0.737-2.02-1.11-7.05-3.87-14.1-7.73-21.2-11.5-1.05-0.561-2.1-1.12-3.16-1.69-5.24-2.8-10.5-5.56-15.8-8.29-0.907-0.472-1.81-0.949-2.71-1.43-5.16-2.74-10.1-4.45-15.9-5.28-10.1-1.38-20.3-0.433-29.8 3.47zm-230 287-2 2c-0.776 2.67-1.14 5.1-1.12 7.88-0.00115 0.371-0.00231 0.742-0.0035 1.12-0.00264 1.24 0.00183 2.48 0.00629 3.71-4.36e-4 0.899-0.00131 1.8-0.00259 2.7-0.00177 1.95-4.42e-4 3.9 0.00364 5.85 0.00605 2.9 0.00634 5.8 0.00546 8.7-0.00131 4.88 0.00202 9.76 0.00802 14.6 0.00592 4.83 0.00977 9.66 0.0109 14.5 6.9e-5 0.301 1.38e-4 0.601 2.09e-4 0.911 3.38e-4 1.53 6.39e-4 3.05 9.27e-4 4.58 0.0021 10.8 0.00883 21.6 0.0183 32.4 0.00919 10.5 0.0163 21 0.0205 31.5 1.31e-4 0.324 2.63e-4 0.647 3.99e-4 0.981 0.00132 3.25 0.00259 6.5 0.00384 9.75 0.00254 6.62 0.00536 13.2 0.00835 19.9 1.38e-4 0.304 2.75e-4 0.609 4.16e-4 0.923 0.0092 20.3 0.0251 40.6 0.0419 61 0.627 0.81 1.26 1.62 1.89 2.42 0.176 0.228 0.352 0.456 0.533 0.692 0.795 1.01 1.52 1.84 2.54 2.63 0.841 0.499 1.69 0.917 2.58 1.32 0.323 0.157 0.645 0.314 0.978 0.476 1.03 0.499 2.07 0.98 3.11 1.46 0.72 0.345 1.44 0.691 2.16 1.04 1.42 0.684 2.84 1.36 4.26 2.03 2.55 1.21 5.06 2.47 7.58 3.74 0.721 0.361 1.44 0.722 2.16 1.08 0.351 0.176 0.702 0.351 1.06 0.532 0.836 0.417 1.67 0.832 2.51 1.25 3.57 1.77 7.08 3.62 10.6 5.52 5.72 3.08 11.5 6.06 17.3 8.94 6.58 3.26 13 6.68 19.4 10.3 8.73 4.88 17.5 9.34 27.1 12.2 0.917 0.282 1.82 0.582 2.72 0.9 4.68 1.57 9.17 1.82 14.1 1.8 1.29-0.00315 2.57 0.0204 3.86 0.0457 4.3 0.0344 8.25-0.294 12.4-1.63 2.57-0.914 4.95-1.98 7.12-3.64 0.827-0.687 1.61-1.41 2.39-2.15 0.104-0.0956 0.104-0.0956 0.632-0.579 1.85-1.71 3.6-3.47 4.85-5.67 1.2-2.42 2.07-4.91 2.83-7.5 0.394-1.24 0.888-2.41 1.41-3.6 1.4-3.48 1.91-6.93 2.08-10.7 0.0758-2.37 0.0863-4.74 0.0806-7.11-2.72e-4 -0.419-5.44e-4 -0.838-8.24e-4 -1.27-0.0196-6.57-0.0688-13.3-2.19-19.5-0.592-1.33-1.38-2.48-2.23-3.66-0.934-1.44-1.23-2.99-1.64-4.64-1.19-4.76-2.97-8.59-5.69-12.6-3.39-5.02-7.35-9.45-11.5-13.9-6.97-7.45-6.97-7.45-8.96-11.2-0.725-1.97-0.984-3.9-1-6 0.364-0.11 0.727-0.219 1.1-0.332 1.36-0.422 2.71-0.886 4.06-1.37 0.532-0.189 1.07-0.371 1.6-0.543 1.94-0.642 3.63-1.48 5.24-2.76 2.79-2.61 5.17-5.65 7-9 2.52-5.14 4.1-11 4.75-16.6 0.0878-1.1 0.152-2.19 0.199-3.29 0.0515-1.09 0.146-2.18 0.243-3.27 0.37-5.69-0.688-11-1.94-16.5-0.0785-0.36-0.157-0.72-0.238-1.09-0.967-4.36-2.27-8.02-4.6-11.8-1.35-2.21-2.15-4.31-2.79-6.82-0.85-2.86-1.9-5.22-3.67-7.64-1.02-1.32-2.07-2.62-3.13-3.91-1.46-1.8-2.82-3.66-4.2-5.52-0.507-0.677-1.02-1.35-1.52-2.03-0.367-0.49-0.734-0.979-1.1-1.47h-2c-0.0864-0.231-0.173-0.461-0.262-0.699-0.712-1.65-1.51-3.11-2.74-4.43-1.06-1.07-2.16-2.1-3.25-3.14-0.784-0.764-1.53-1.55-2.28-2.36-9-9.58-21-16.1-32.6-22-1.23-0.611-2.47-1.2-3.71-1.8-1.48-0.726-2.95-1.48-4.42-2.23-0.909-0.463-1.82-0.925-2.73-1.39-0.584-0.298-1.17-0.596-1.75-0.897-3.6-1.85-7.22-3.45-11-4.91-5.61-2.18-10.9-4.93-16.2-7.76-1.97-1.05-3.95-2.09-5.93-3.14-0.722-0.381-1.44-0.763-2.16-1.15-3.03-1.6-6.08-3.15-9.15-4.67-2.43-1.21-4.82-2.48-7.2-3.77-0.36-0.194-0.719-0.389-1.09-0.589-1.46-0.792-2.93-1.58-4.39-2.39-6.94-3.81-6.94-3.81-10.2-4.47-0.658-0.0912-1.32-0.175-1.98-0.23z"/>
 <path transform="translate(234,488)" d="m0 0c3.06-0.136 6.06 0.0986 9 1 4.83 1.83 9.38 4.45 13.9 6.89 1.97 1.06 3.96 2.08 5.95 3.1 11.3 5.82 22.9 12.1 32.1 21l1 4 3 1c1.36 2.65 2.69 5.32 4 8 0.187 0.379 0.374 0.759 0.566 1.15 3.83 7.86 3.83 7.86 4.27 12 0.0721 0.958 0.117 1.92 0.163 2.87 0.0155 0.224 0.0155 0.224 0.0942 1.36 0.553 8.18 0.553 8.18-0.395 11.8-0.728 1.92-1.73 3.56-3.04 5.13-1.98 2.16-4.14 4.22-6.66 5.73-1.25 0.595-2.47 0.923-3.84 1.12-3.13 0.285-6.27 0.148-9.33-0.583-4.73-1.34-8.84-3.52-12.9-6.21-3.68-2.38-7.61-4.04-11.6-5.78-3.33-1.46-6.62-2.99-9.91-4.54-1.14-0.535-2.28-1.07-3.43-1.59-5.29-2.42-10.1-4.85-14.4-8.82-0.677-0.82-1.08-1.63-1.5-2.61-0.123-1.04-0.123-1.04-0.12-2.18-0.00137-0.432-0.00275-0.864-0.00416-1.31 0.0036-0.47 0.00719-0.939 0.0109-1.42 2.82e-4 -0.503 1.23e-4 -1.01-4.43e-4 -1.51-2.86e-4 -1.36 0.00559-2.72 0.0126-4.08 0.00626-1.42 0.00684-2.85 0.00802-4.27 0.00311-2.7 0.0113-5.39 0.0214-8.09 0.0112-3.07 0.0167-6.14 0.0217-9.21 0.0104-6.31 0.0282-12.6 0.0503-18.9 0.99-1.65 1.98-3.3 3-5z"/>
 <path transform="translate(233,581)" d="m0 0c3.34-0.349 6.67-0.485 10 0 2.78 0.841 5.27 2.33 7.79 3.76 2.91 1.66 5.93 3.11 8.93 4.6 1.38 0.685 2.76 1.38 4.14 2.07 2.98 1.5 5.97 2.97 8.97 4.43 9.69 4.71 18.3 9.87 26.2 17.3 0.912 0.839 1.85 1.64 2.79 2.45 2.56 2.27 4.75 4.58 6.43 7.58 5.91 10.9 5.91 10.9 7.14 16.4 0.821 5.7 1.2 11.7 0.586 17.4-0.655 3.12-1.74 6.08-3 9-1.26 1.15-2.54 2.3-3.81 3.44-0.356 0.325-0.713 0.651-1.08 0.986-0.351 0.313-0.703 0.625-1.06 0.947-0.16 0.144-0.16 0.144-0.968 0.873-1.04 0.731-1.99 1.2-3.21 1.56-3.09 0.697-6.23 0.743-9.37 0.456-4.82-0.711-9.4-3.44-13.7-5.59-1.41-0.698-2.82-1.37-4.24-2.05-1.66-0.796-3.32-1.59-4.97-2.4-3.03-1.48-6.07-2.89-9.17-4.22-4.94-2.14-9.66-4.68-14.4-7.25-1.24-0.675-2.48-1.34-3.73-2-0.975-0.521-1.95-1.05-2.92-1.58-0.458-0.248-0.916-0.494-1.38-0.738-1.68-0.889-3.3-1.78-4.72-3.06-0.622-0.776-0.96-1.42-1.29-2.36-0.387-1.91-0.513-3.8-0.617-5.74-0.0184-0.294-0.0369-0.588-0.0559-0.89-0.586-9.4-0.478-18.8-0.456-28.3 0.00438-2.07 0.00122-4.14-0.00363-6.22-0.00509-2.27-0.00455-4.54-0.00162-6.81 6.64e-4 -0.955-1.4e-4 -1.91-0.00248-2.86-0.00254-1.32 0.00133-2.65 0.0069-3.97-0.00202-0.388-0.00405-0.776-0.00613-1.18 0.0133-1.71 0.103-3.21 0.644-4.84 0.162-0.407 0.325-0.815 0.492-1.23z"/>
</svg>
